<?xml version="1.0" encoding="UTF-8" standalone="no"?>
<svg
   xmlns:dc="http://purl.org/dc/elements/1.1/"
   xmlns:cc="http://creativecommons.org/ns#"
   xmlns:rdf="http://www.w3.org/1999/02/22-rdf-syntax-ns#"
   xmlns:svg="http://www.w3.org/2000/svg"
   xmlns="http://www.w3.org/2000/svg"
   xmlns:xlink="http://www.w3.org/1999/xlink"
   xml:space="preserve"
   style="enable-background:new 0 0 512.002 512.002;"
   viewBox="0 0 512.002 512.002"
   y="0px"
   x="0px"
   id="Layer_1"
   version="1.1"><metadata
   id="metadata51"><rdf:RDF><cc:Work
       rdf:about=""><dc:format>image/svg+xml</dc:format><dc:type
         rdf:resource="http://purl.org/dc/dcmitype/StillImage" /><dc:title></dc:title></cc:Work></rdf:RDF></metadata><defs
   id="defs49" />


<path
   id="path5"
   d="M505.183,39.73c0.548-0.549,1.061-1.12,1.542-1.707c0.217-0.264,0.41-0.548,0.614-0.821  c0.248-0.334,0.509-0.662,0.74-1.005c0.222-0.332,0.417-0.683,0.621-1.026c0.185-0.309,0.379-0.611,0.548-0.926  c0.186-0.349,0.348-0.714,0.517-1.074c0.157-0.329,0.321-0.655,0.459-0.99c0.146-0.349,0.264-0.711,0.391-1.067  c0.129-0.36,0.268-0.717,0.379-1.081c0.107-0.357,0.188-0.726,0.281-1.091c0.093-0.372,0.199-0.743,0.273-1.119  c0.084-0.42,0.135-0.852,0.196-1.28c0.045-0.324,0.107-0.645,0.14-0.97c0.076-0.757,0.116-1.524,0.116-2.301  c0-0.776-0.04-1.542-0.116-2.299c-0.033-0.327-0.095-0.653-0.141-0.981c-0.06-0.425-0.11-0.853-0.194-1.269  c-0.074-0.38-0.182-0.752-0.276-1.129c-0.092-0.36-0.169-0.725-0.278-1.078c-0.112-0.368-0.251-0.729-0.382-1.092  c-0.127-0.352-0.244-0.711-0.388-1.057c-0.14-0.338-0.306-0.667-0.464-1.001c-0.168-0.355-0.327-0.717-0.512-1.063  c-0.169-0.32-0.366-0.625-0.554-0.939c-0.203-0.34-0.396-0.686-0.616-1.013c-0.231-0.348-0.493-0.678-0.745-1.015  c-0.203-0.272-0.394-0.552-0.61-0.813c-0.483-0.588-0.995-1.159-1.542-1.708c-0.549-0.549-1.119-1.06-1.707-1.542  c-0.27-0.222-0.56-0.419-0.839-0.628c-0.327-0.245-0.65-0.5-0.987-0.725c-0.337-0.225-0.692-0.424-1.041-0.631  c-0.303-0.18-0.6-0.372-0.909-0.538c-0.354-0.189-0.725-0.352-1.091-0.524c-0.323-0.152-0.642-0.315-0.973-0.451  c-0.352-0.146-0.718-0.265-1.078-0.394c-0.355-0.127-0.709-0.265-1.071-0.375c-0.357-0.109-0.728-0.189-1.092-0.281  c-0.372-0.093-0.742-0.199-1.117-0.273c-0.419-0.082-0.847-0.133-1.274-0.194c-0.326-0.047-0.65-0.109-0.977-0.141  c-0.756-0.074-1.522-0.116-2.299-0.116h0c-90.791,0-176.86,29.004-248.906,83.878c-65.409,49.817-115.06,119.215-141.073,196.727  c5.745-0.877,11.629-1.333,17.614-1.333c10.653,0,20.964,1.468,30.773,4.161c46.323-123.641,157.522-212.861,286.989-232.71  c-22.078,29.317-40.052,61.342-53.62,95.741c-17.856,45.268-27.409,92.737-28.521,141.336c13.489-5.482,28.219-8.529,43.655-8.529  c1.077,0,2.141,0.053,3.21,0.082c4.361-90.552,41.577-174.866,106.333-239.621C505.181,39.733,505.183,39.73,505.183,39.73z"
   style="fill:#64C37D;" />



















<g
   id="g885"><path
     id="use877"
     d="m 398.847,279.355 c -1.069,-0.029 -2.133,-0.082 -3.21,-0.082 v 0 c -15.434,0 -30.164,3.047 -43.653,8.529 -42.589,17.304 -72.708,59.106 -72.708,107.835 0,64.163 52.199,116.363 116.363,116.363 v 0 C 459.803,512 512.002,459.799 512.002,395.637 512,332.55 461.529,281.066 398.847,279.355 Z"
     style="fill:#d8143a" /><path
     id="use879"
     d="m 351.982,287.801 c -42.589,17.304 -72.708,59.106 -72.708,107.835 0,64.163 52.199,116.363 116.363,116.363 V 279.273 c -15.436,10e-4 -30.165,3.047 -43.655,8.528 z"
     style="fill:#b8002b" /></g><use
   height="100%"
   width="100%"
   transform="translate(-276)"
   id="use887"
   xlink:href="#g885"
   y="0"
   x="0" /></svg>