<?xml version="1.0" encoding="UTF-8" standalone="no"?>
<svg
   xmlns:dc="http://purl.org/dc/elements/1.1/"
   xmlns:cc="http://creativecommons.org/ns#"
   xmlns:rdf="http://www.w3.org/1999/02/22-rdf-syntax-ns#"
   xmlns:svg="http://www.w3.org/2000/svg"
   xmlns="http://www.w3.org/2000/svg"
   id="svg8"
   version="1.1"
   viewBox="0 0 210 297"
   height="297mm"
   width="210mm">
  <defs
     id="defs2" />
  <metadata
     id="metadata5">
    <rdf:RDF>
      <cc:Work
         rdf:about="">
        <dc:format>image/svg+xml</dc:format>
        <dc:type
           rdf:resource="http://purl.org/dc/dcmitype/StillImage" />
        <dc:title></dc:title>
      </cc:Work>
    </rdf:RDF>
  </metadata>
  <g
     id="layer1">
    <path
       id="path904"
       d="M 105.07237,1.1326232 A 112.41656,103.84713 89.838238 0 0 1.5203401,110.38922 c -0.3853992,2.09904 -0.59572772,4.28375 -0.59572772,6.53339 v 149.88766 c 0,15.98484 10.27768562,28.85336 23.04320862,28.85336 h 1.708147 c 17.60607,-5.67327 13.078497,-17.1692 21.73097,-22.93456 l 12.506529,22.93456 h 6.236117 c 9.292447,-2.16219 12.555931,-11.66308 14.034987,-23.33677 2.410148,7.77899 7.501344,15.55778 20.249489,23.33677 h 2.15848 l 21.1673,-20.92273 15.59626,20.92273 h 3.32309 c 8.47046,-2.85906 15.32721,-8.66573 20.41352,-17.70427 7.69881,8.54803 15.23424,16.47098 21.02116,17.70427 h 2.7736 c 12.76553,0 23.04171,-12.86852 23.04171,-28.85336 V 116.92261 c 0,-2.96492 -0.35433,-5.82196 -1.01176,-8.51021 A 112.41656,103.84713 89.838238 0 0 105.07237,1.1326232 Z"
       style="opacity:0.98999999;fill:#23c0c0;fill-opacity:1;fill-rule:evenodd;stroke:#9687d6;stroke-width:0;stroke-linecap:round;stroke-linejoin:miter;stroke-miterlimit:4;stroke-dasharray:none;stroke-dashoffset:0;stroke-opacity:1" />
    <ellipse
       transform="rotate(2.6915993)"
       style="opacity:0.98999999;fill:#ffffff;fill-opacity:1;fill-rule:evenodd;stroke:#9687d6;stroke-width:0;stroke-linecap:round;stroke-linejoin:miter;stroke-miterlimit:4;stroke-dasharray:none;stroke-dashoffset:0;stroke-opacity:1"
       id="ellipse866"
       cx="146.46609"
       cy="103.2889"
       rx="46.956112"
       ry="72.05616" />
    <ellipse
       transform="rotate(-3.1314386)"
       ry="72.05616"
       rx="46.956112"
       cy="114.40551"
       cx="56.979568"
       id="ellipse917"
       style="opacity:0.98999999;fill:#ffffff;fill-opacity:1;fill-rule:evenodd;stroke:#9687d6;stroke-width:0;stroke-linecap:round;stroke-linejoin:miter;stroke-miterlimit:4;stroke-dasharray:none;stroke-dashoffset:0;stroke-opacity:1" />
    <g
       transform="translate(30.468726,-2.1381563)"
       id="g1503">
      <ellipse
         ry="24.4324"
         rx="18.189278"
         style="opacity:0.98999999;fill:#000000;fill-opacity:1;fill-rule:evenodd;stroke:#9687d6;stroke-width:0;stroke-linecap:round;stroke-linejoin:miter;stroke-miterlimit:4;stroke-dasharray:none;stroke-dashoffset:0;stroke-opacity:1"
         id="ellipse919"
         cx="59.028019"
         cy="121.37054"
         transform="matrix(0.99752137,-0.0703641,0.04239244,0.99910104,0,0)" />
      <ellipse
         transform="matrix(0.99752137,-0.0703641,0.04239244,0.99910104,0,0)"
         cy="128.53963"
         cx="138.03171"
         id="ellipse927"
         style="opacity:0.98999999;fill:#000000;fill-opacity:1;fill-rule:evenodd;stroke:#9687d6;stroke-width:0;stroke-linecap:round;stroke-linejoin:miter;stroke-miterlimit:4;stroke-dasharray:none;stroke-dashoffset:0;stroke-opacity:1"
         rx="18.189278"
         ry="24.4324" />
    </g>
  </g>
</svg>
